HIERARCHY
ROOT pelvis
{
  OFFSET 0 100 0
  CHANNELS 6 Xposition Yposition Zposition Zrotation Xrotation Yrotation
  JOINT pelvis_right_femur
  {
    OFFSET -10.78128 -3.44521 -0.5502486
    CHANNELS 3 Zrotation Xrotation Yrotation
    JOINT right_femur_tibia
    {
      OFFSET -0.8047443 -44.0398 -0.1307829
      CHANNELS 3 Zrotation Xrotation Yrotation
      JOINT right_tibia_foot
      {
        OFFSET 3.006224 -47.83518 -5
        CHANNELS 3 Zrotation Xrotation Yrotation
        End Site
        {
          OFFSET 0 -5 15
        }
      }
    }
  }
  JOINT pelvis_left_femur
  {
    OFFSET 10.78128 -3.44521 -0.5502486
    CHANNELS 3 Zrotation Xrotation Yrotation
    JOINT left_femur_tibia
    {
      OFFSET 0.8047443 -44.0398 -0.1307829
      CHANNELS 3 Zrotation Xrotation Yrotation
      JOINT left_tibia_foot
      {
        OFFSET -4.370144 -48.10324 -4.275266
        CHANNELS 3 Zrotation Xrotation Yrotation
        End Site
        {
          OFFSET 0 -5 15
        }
      }
    }
  }
  JOINT pelvis_spine1
  {
    OFFSET 0 6.468898 -3.129235
    CHANNELS 3 Zrotation Xrotation Yrotation
    JOINT spine1
    {
      OFFSET 0 23.15396 4.99043
      CHANNELS 3 Zrotation Xrotation Yrotation
      JOINT spine2
      {
        OFFSET 0 20.79997 -5.064912
        CHANNELS 3 Zrotation Xrotation Yrotation
        JOINT neck
        {
          OFFSET 0 14.38658 9.616178
          CHANNELS 3 Zrotation Xrotation Yrotation
          End Site
          {
            OFFSET 0 20 0
          }
        }
      }
      JOINT right_manubrium
      {
        OFFSET -5.722621 16.35077 3.967754
        CHANNELS 3 Zrotation Xrotation Yrotation
        JOINT right_clavicle
        {
          OFFSET -13.16364 1.694482 -4.693211
          CHANNELS 3 Zrotation Xrotation Yrotation
          JOINT right_humerus
          {
            OFFSET -28.5034 -0.3100689 -2.792744
            CHANNELS 3 Zrotation Xrotation Yrotation
            JOINT right_radius
            {
              OFFSET -25.15693 0.02248979 -1.271978
              CHANNELS 3 Zrotation Xrotation Yrotation
              End Site
              {
                OFFSET -15 0 0
              }
            }
          }
        }
      }
      JOINT left_manubrium
      {
        OFFSET 5.722621 16.35077 3.967754
        CHANNELS 3 Zrotation Xrotation Yrotation
        JOINT left_clavicle
        {
          OFFSET 13.16364 1.694482 -4.693211
          CHANNELS 3 Zrotation Xrotation Yrotation
          JOINT left_humerus
          {
            OFFSET 29.39168 -1.063119 -2.237045
            CHANNELS 3 Zrotation Xrotation Yrotation
            JOINT left_radius
            {
              OFFSET 24.59957 -0.9528479 0.9047498
              CHANNELS 3 Zrotation Xrotation Yrotation
              End Site
              {
                OFFSET 15 -0 -0
              }
            }
          }
        }
      }
    }
  }
}
MOTION
Frames: 15
Frame Time: 0.0416666666667
0 103.5113 0 1.037791 -2.198291 -0.104704 2.852043 -16.66266 9.293997 -0 41.71463 -0 -7.572229 -16.60642 -3.807552 -6.606009 10.01338 -22.86332 -0 5.685776 -0 13.54166 -14.23206 28.9776 -4.570438 -3.044557 3.649798 2.869558 10.28451 -7.377835 1.401915 22.66977 6.612684 3.006725 -23.58872 9.375705 7.297825 -18.99082 12.11505 84.38162 37.18519 -16.71109 -0 0 14.63732 -8.632927 8.610147 5.645071 5.241382 -19.06043 -2.208072 -91.64018 21.97061 18.30779 0 0 -11.8203 13.23812 15.73651 -2.429368
0.2482028 103.9694 1.384943 0.8107399 -1.791795 -0.2314162 3.09983 -18.24545 8.88896 -0 40.32423 -0 -7.634657 -15.63851 -3.568581 -6.483737 10.14302 -22.34262 -0 5.453851 -0 13.11876 -14.82186 28.34217 -4.334404 -2.924438 3.686096 2.861518 10.28492 -7.508384 1.372268 22.43743 6.711996 3.114258 -23.83587 9.364915 7.163367 -19.00855 12.06892 84.61442 36.98897 -17.07401 -0 0 14.47888 -8.866042 8.766615 5.667924 5.567207 -19.49526 -2.151013 -91.3893 21.64422 18.09912 0 0 -12.63676 13.63341 15.66041 -2.689407
0.4199844 104.1255 3.699834 -0.5448337 0.6745244 -0.1296773 4.909238 -26.45446 7.443687 -0 30.30772 -0 -6.926001 -10.29161 -3.302459 -5.562235 12.27067 -19.96688 -0 5.024529 -0 6.503782 -19.8299 22.8558 -2.824227 -2.263552 3.560067 3.038793 9.616156 -8.61428 1.256583 21.29167 7.102611 3.416264 -25.63351 9.168348 5.789331 -19.13399 11.55042 86.84793 34.4091 -20.89919 -0 0 13.72199 -9.138358 9.150738 5.935699 6.338996 -21.21843 -2.127367 -91.90887 27.06095 19.54707 0 0 -19.3796 7.115988 16.21709 6.644401
0.5518146 104.0909 6.445414 -1.099862 2.101534 0.1297012 6.073066 -29.77442 7.441799 -0 25.19243 -0 -6.433507 -8.419036 -3.086118 -5.239366 12.88606 -19.42604 -0 6.189405 -0 2.874404 -22.20064 20.41699 -2.212326 -2.016976 3.750007 2.992916 8.952026 -8.754478 1.478243 20.6748 7.197853 3.65148 -26.38813 9.336119 5.388413 -18.8785 11.16091 87.24661 33.69042 -21.94767 -0 0 14.13616 -8.629856 9.377379 5.396828 6.97864 -21.6053 -1.522241 -92.92496 29.30174 20.64354 0 0 -21.16334 4.488281 16.53115 10.21954
0.6373459 103.946 9.713575 -1.562828 3.37253 0.5588526 6.983741 -32.81804 7.057037 -0 20.21232 -0 -6.35786 -6.129325 -2.779388 -4.895937 13.68135 -18.75465 -0 8.206425 -0 -0.6627257 -24.11712 17.54253 -1.737587 -1.671943 3.699006 2.969425 8.292003 -8.826474 1.679472 20.21464 7.325398 3.891083 -26.97796 9.516532 5.054182 -18.30303 10.81966 87.70004 33.30575 -22.9039 -0 0 14.00128 -8.613041 9.836171 5.117542 7.400941 -21.89881 -1.095735 -93.49253 31.0759 21.10136 0 0 -22.64878 2.263027 16.70765 13.13423
0.6461004 103.6983 13.67405 -1.912334 4.092206 1.163416 7.324408 -35.52123 5.78074 -0 15.51352 -0 -6.800431 -3.462563 -2.494415 -4.459037 15.15934 -17.5505 -0 11.04679 -0 -3.556536 -25.16205 14.31212 -1.400511 -1.234379 3.175727 3.040405 7.782274 -8.928967 1.784291 20.0753 7.429768 3.98892 -27.16954 9.595968 4.575807 -17.30563 10.56626 88.49082 32.81724 -23.90129 -0 0 12.63676 -9.538193 10.51717 5.380512 7.455347 -22.20956 -1.15465 -92.62808 31.80856 19.78195 0 0 -24.14412 1.106451 16.67409 14.48034
0.5482263 103.4399 18.52366 -2.158368 3.973933 1.896284 7.213327 -37.0305 3.886826 -0 11.99662 -0 -7.610018 -1.041781 -2.477418 -3.905995 17.42989 -15.90616 -0 15.32778 -0 -5.599321 -25.02687 11.2877 -1.117476 -0.846683 2.189048 3.223173 7.430525 -9.038168 1.827106 20.35045 7.384647 3.831577 -26.85707 9.526818 3.878112 -15.92744 10.3885 89.5754 31.8492 -24.81522 -0 0 10.074 -11.08227 11.18238 6.009918 7.005146 -22.33051 -1.711049 -90.55011 31.56876 16.87539 0 0 -25.27542 0.8765111 16.50094 14.36703
0.3329203 103.3984 24.37455 -2.339315 2.70583 2.603416 7.121606 -36.05702 2.273064 -0 11.5768 -0 -8.575646 0.1517566 -3.096372 -3.224976 20.07763 -14.02813 -0 21.44186 -0 -6.247174 -23.13659 9.565945 -0.7321914 -0.7541567 0.9374459 3.497789 7.370196 -9.13592 1.837707 21.05768 7.014879 3.316912 -25.99729 9.216143 2.991477 -14.47279 10.30913 90.75651 30.09603 -25.34726 -0 0 6.695002 -12.53274 11.45173 6.644202 5.995184 -22.04271 -2.660054 -87.96293 30.27292 13.22315 0 0 -25.41332 1.662146 16.16749 12.76327
0.05764101 103.8874 30.95571 -2.588021 0.879752 3.052533 7.758727 -32.03955 2.471546 -0 15.22902 -0 -9.260312 -0.9090133 -4.38168 -2.486709 21.05882 -12.45607 -0 28.33163 -0 -5.880684 -19.22874 9.710319 -0.06316616 -1.103095 0.1939767 3.713818 7.664486 -9.174047 1.808123 21.73383 6.319957 2.626987 -24.99174 8.601794 2.397437 -13.6883 10.36714 91.39647 28.24867 -25.11744 -0 0 4.220495 -12.60532 11.04486 6.74415 4.847777 -21.30902 -3.373533 -86.48722 28.59563 11.18758 0 0 -24.20246 2.943859 15.46851 10.77001
-0.1349585 104.9347 37.54137 -2.854117 0.3702971 3.193497 8.557553 -26.90934 4.006606 -0 18.57998 -0 -9.193979 -3.607378 -5.039552 -2.037123 17.52053 -11.78311 -0 33.99525 -0 -6.843467 -14.46224 9.547237 0.7121689 -1.324777 0.8532221 3.608433 7.901828 -8.925 1.595289 21.66474 5.90726 2.39668 -24.56478 7.867035 2.915249 -13.94955 10.66412 90.69831 28.52614 -24.10872 -0 0 4.850976 -11.42699 10.57134 6.624885 4.287731 -20.48419 -3.136883 -87.282 28.17273 12.89586 0 0 -22.72066 2.817281 14.32743 11.24614
-0.2287024 106.2865 43.82833 -2.725845 0.2378218 3.072222 8.33143 -22.08983 4.028575 -0 18.59338 -0 -8.906265 -5.617807 -4.639743 -2.019145 11.94451 -11.74282 -0 41.3159 -0 -8.996189 -10.58741 8.381856 1.124211 -0.9020348 2.051868 3.13936 7.865984 -8.165632 1.443788 21.8306 5.942035 2.586018 -24.09783 7.480311 3.766094 -14.11994 11.10473 89.68646 30.29381 -22.90884 -0 0 6.336746 -11.55264 11.08247 7.003357 3.946395 -19.88007 -2.826896 -88.66947 29.061 15.50226 0 0 -21.80589 1.18711 14.04789 13.89962
-0.3975057 107.8482 49.98598 -2.116171 -2.012579 2.604073 7.586285 -16.67603 2.988523 -0 18.80421 -0 -9.024325 -6.829386 -4.940115 -2.079818 8.527506 -11.50293 -0 50.76256 -0 -9.475993 -8.390008 9.422468 1.000821 -0.3716685 2.614452 2.535153 8.019347 -7.150729 1.878904 23.17333 5.498418 2.41812 -22.50185 7.466287 3.463559 -13.66199 11.20723 89.71494 30.1167 -21.67811 -0 0 5.873087 -12.8671 11.83268 7.219948 3.508732 -19.48831 -3.129678 -88.70145 29.51195 15.14822 0 0 -20.30067 0.7672582 15.26299 14.43654
-0.6948158 109.6354 55.91107 -1.40789 -4.678428 1.964729 6.941613 -11.22064 2.344975 -0 18.82859 -0 -9.143817 -8.282278 -5.527502 -2.15545 5.409969 -11.07153 -0 57.42134 -0 -8.957739 -7.390853 11.66719 0.5659418 0.1759524 2.973137 1.997945 8.232086 -6.158703 2.511499 24.5488 4.785563 2.082284 -20.7548 7.530562 2.711974 -13.40965 11.08735 89.74525 28.93614 -19.97239 -0 0 5.467887 -13.91411 12.1221 7.329768 3.292643 -19.06898 -3.361977 -88.64195 29.38281 14.06782 0 0 -18.05051 1.218145 16.40724 13.40215
-1.069544 111.5524 61.43907 -0.9200747 -6.391086 1.251188 6.531647 -6.276484 2.037813 -0 17.97277 -0 -9.438444 -9.923163 -5.627843 -2.153119 1.125846 -10.70343 -0 60.95993 -0 -8.302431 -6.742319 13.62584 0.1376621 0.7700179 3.457087 1.594813 8.389319 -5.302622 2.9401 25.42498 4.290366 1.884926 -19.7354 7.585037 2.24286 -13.71695 11.03006 89.23192 28.4415 -17.94635 -0 0 5.992608 -14.65587 12.30927 7.715653 3.212811 -18.62179 -3.304256 -89.37089 29.19739 14.28315 0 0 -15.59754 1.585157 17.11016 12.51868
-1.474871 113.3665 66.52553 -0.5943089 -7.452267 0.4776518 6.246352 -1.57145 1.837836 -0 16.37904 -0 -9.892423 -11.73772 -5.417282 -2.000407 -4.004558 -10.30412 -0 61.81316 -0 -7.389465 -6.331451 15.46797 -0.282013 1.338657 3.993927 1.273827 8.52296 -4.55264 3.214836 25.98988 3.938916 1.733846 -19.18165 7.636511 1.896586 -14.43822 11.01178 88.34649 28.39564 -15.64825 -0 0 7.105912 -15.38362 12.52194 8.419665 3.224887 -18.18532 -3.058534 -90.49051 28.87353 15.25448 0 0 -13.08715 1.970816 17.59976 11.65789
